 <svg  version="1.0" xmlns="http://www.w3.org/2000/svg"  width="154.000000pt" height="118.000000pt" viewBox="0 0 154.000000 118.000000"  preserveAspectRatio="xMidYMid meet">  <g transform="translate(0.000000,118.000000) scale(0.100000,-0.100000)" fill="#000000" stroke="none"> <path d="M255 1129 c-53 -15 -82 -51 -155 -186 -74 -137 -86 -181 -65 -237 33 -93 88 -164 202 -265 222 -195 519 -341 798 -391 103 -19 111 -19 123 -3 16 23 15 36 -3 29 -10 -3 -15 1 -15 11 0 15 -2 15 -14 -2 -10 -15 -20 -17 -52 -11 -21 4 -57 9 -79 12 -22 2 -41 8 -43 14 -2 5 -12 10 -23 10 -10 0 -19 5 -19 11 0 8 -4 8 -14 0 -15 -13 -71 3 -62 17 4 7 -11 11 -56 13 -10 0 -20 4 -23 10 -4 5 -15 9 -27 9 -13 0 -18 5 -15 14 4 10 0 12 -14 9 -11 -3 -21 1 -25 11 -3 9 -10 13 -16 10 -13 -8 -69 16 -62 27 3 5 -1 9 -9 9 -18 0 -97 39 -115 56 -7 8 -18 14 -23 14 -5 0 -9 6 -9 14 0 9 -7 12 -20 9 -11 -3 -20 0 -20 6 0 6 -7 11 -15 11 -8 0 -15 4 -15 9 0 11 -71 57 -83 53 -4 -1 -6 2 -5 6 4 13 -82 93 -93 87 -5 -4 -6 1 -3 10 4 10 -2 24 -15 36 -11 11 -21 16 -21 12 0 -15 -79 112 -80 128 0 8 -5 20 -11 26 -7 7 -7 22 0 49 15 51 77 160 90 157 6 -2 8 8 5 26 -5 22 1 39 22 68 15 21 35 44 43 51 26 21 89 33 174 33 289 -2 704 -196 948 -441 108 -109 156 -196 144 -262 -4 -24 -8 -53 -8 -65 -1 -13 -5 -23 -9 -23 -4 0 -14 -16 -22 -35 -8 -19 -18 -35 -21 -35 -3 0 -1 9 5 19 15 29 13 31 -20 20 -16 -6 -28 -14 -26 -18 12 -19 -67 -166 -107 -199 -14 -12 -16 -11 -12 6 3 19 2 19 -28 4 -18 -9 -38 -17 -45 -18 -35 -6 -27 -26 10 -27 82 -2 149 32 185 95 67 117 103 190 98 199 -4 5 -2 9 3 9 13 0 32 47 32 79 0 230 -530 614 -974 705 -81 17 -242 20 -291 5z m1147 -916 c-6 -2 -10 -9 -6 -14 3 -5 0 -9 -6 -9 -6 0 -8 -4 -5 -10 3 -5 1 -10 -6 -10 -7 0 -10 -3 -6 -6 6 -6 -19 -64 -27 -64 -7 0 0 25 21 73 12 26 28 47 35 46 10 0 10 -2 0 -6z"/> <path d="M393 1050 c-145 -34 -131 -165 35 -327 201 -196 552 -354 786 -353 69 0 138 27 155 58 95 178 -413 567 -812 621 -88 12 -117 12 -164 1z m17 -28 c0 -5 -11 -14 -24 -22 -33 -17 -50 -61 -43 -108 l6 -37 -19 25 c-30 38 -26 95 8 125 26 23 72 34 72 17z m212 -16 c150 -29 340 -117 486 -225 211 -157 271 -317 134 -362 -88 -29 -307 18 -474 102 -284 142 -473 359 -392 450 44 50 116 60 246 35z m734 -538 c-8 -38 -24 -53 -66 -61 l-35 -7 27 17 c15 10 34 35 43 56 18 44 40 41 31 -5z"/> <path d="M520 985 c0 -14 66 -62 71 -53 4 7 20 1 41 -16 19 -14 37 -23 41 -20 3 3 19 -3 36 -15 63 -45 145 -82 175 -79 31 3 30 4 -27 40 -32 20 -89 44 -125 54 -49 13 -79 28 -109 56 -30 26 -52 38 -73 38 -16 0 -30 -2 -30 -5z"/> <path d="M538 899 c-29 -17 -21 -50 24 -92 52 -50 152 -97 210 -100 23 -1 48 -7 53 -13 52 -56 139 -127 142 -117 3 9 16 5 41 -12 34 -23 37 -24 55 -7 13 12 17 25 13 44 -8 42 9 34 47 -22 17 -25 17 -25 -15 -52 l-33 -27 32 8 c46 13 53 19 53 45 0 52 -138 153 -233 170 -21 4 -44 9 -51 12 -7 3 -13 -2 -13 -10 0 -8 3 -15 6 -14 28 3 60 -5 77 -18 10 -8 14 -13 7 -10 -6 4 -14 2 -17 -3 -3 -5 7 -11 22 -14 31 -6 91 -45 105 -68 7 -12 6 -21 -4 -32 -12 -14 -20 -9 -72 41 -44 43 -60 54 -66 43 -7 -10 -18 -5 -49 24 -26 23 -54 38 -76 41 -19 2 -47 9 -63 15 -21 8 -24 12 -13 19 11 7 8 11 -13 19 -16 6 -31 11 -34 11 -16 0 -63 44 -63 60 0 34 33 26 84 -22 31 -29 53 -42 57 -36 5 7 23 -2 50 -25 23 -20 45 -35 48 -32 6 6 -54 69 -91 97 -24 16 -28 17 -28 4 0 -9 7 -16 16 -16 8 0 12 -5 8 -11 -4 -7 -20 3 -42 26 -46 47 -62 55 -91 44 -19 -8 -22 -15 -19 -39 4 -24 2 -27 -9 -19 -7 7 -13 8 -13 5 0 -12 -26 18 -34 39 -5 14 -1 24 16 37 25 19 6 25 -24 7z"/> <path d="M746 631 c-15 -23 213 -129 254 -118 12 3 32 -9 56 -34 30 -31 46 -39 73 -39 l35 0 -29 30 c-18 18 -35 28 -45 25 -9 -3 -29 4 -43 15 -15 12 -32 18 -37 15 -6 -4 -16 -2 -23 3 -12 10 -18 12 -38 12 -5 0 -8 4 -5 9 3 5 -13 16 -36 26 -23 9 -55 26 -72 38 -30 21 -82 31 -90 18z"/> <path d="M160 908 c0 -8 10 -23 22 -34 l21 -19 -18 30 c-26 41 -25 40 -25 23z"/> <path d="M200 836 c0 -8 5 -18 10 -21 6 -3 10 1 10 9 0 8 -4 18 -10 21 -5 3 -10 -1 -10 -9z"/> <path d="M250 765 c0 -8 5 -15 10 -15 6 0 10 -7 10 -15 0 -9 6 -12 15 -9 8 4 15 1 15 -5 0 -6 5 -11 11 -11 12 0 -41 68 -53 69 -5 1 -8 -6 -8 -14z"/> <path d="M330 692 c0 -10 25 -32 60 -51 21 -11 20 -8 -9 23 -34 35 -51 44 -51 28z"/> <path d="M420 610 c0 -5 5 -10 11 -10 7 0 18 -8 25 -17 7 -10 16 -14 21 -10 4 5 -3 17 -16 28 -26 21 -41 24 -41 9z"/> <path d="M512 545 c15 -14 32 -25 37 -25 6 0 14 -7 19 -16 8 -15 10 -15 15 0 5 12 -3 21 -31 34 -20 9 -38 20 -40 25 -2 4 -9 7 -15 7 -7 0 0 -11 15 -25z"/> <path d="M645 470 c-3 -6 -2 -10 4 -10 5 0 17 -7 26 -16 11 -12 19 -14 27 -6 7 7 1 15 -20 26 -19 10 -33 12 -37 6z"/> <path d="M760 405 c0 -9 6 -12 15 -9 8 4 17 -1 21 -10 3 -9 10 -13 15 -10 16 9 10 20 -16 32 -33 15 -35 15 -35 -3z"/> <path d="M880 355 c0 -9 6 -12 15 -9 8 4 17 -1 21 -10 5 -13 9 -14 21 -5 12 10 9 15 -18 26 -39 16 -39 16 -39 -2z"/> <path d="M1000 316 c0 -7 6 -13 13 -13 6 0 17 -2 24 -4 6 -2 11 1 12 6 0 6 -11 13 -24 17 -17 4 -25 2 -25 -6z"/> <path d="M1107 283 c3 -8 11 -12 18 -9 7 2 17 0 23 -6 6 -6 12 -6 17 2 9 15 6 17 -32 23 -25 4 -30 2 -26 -10z"/> <path d="M1202 273 c9 -2 15 -10 12 -18 -4 -10 0 -12 16 -8 20 5 21 4 11 -16 -19 -35 -5 -24 18 14 l20 35 -47 -1 c-26 -1 -39 -3 -30 -6z"/> <path d="M1316 265 c-6 -18 28 -15 46 3 9 9 6 12 -14 12 -14 0 -28 -7 -32 -15z"/> </g> </svg> 